<?xml version="1.0" encoding="UTF-8"?>
<svg width="39px" height="18px" viewBox="0 0 39 18" version="1.1" xmlns="http://www.w3.org/2000/svg" xmlns:xlink="http://www.w3.org/1999/xlink">
    <title>形状结合</title>
    <g id="页面-1" stroke="none" stroke-width="1" fill="none" fill-rule="evenodd">
        <g id="登录页" transform="translate(-24.000000, -23.000000)" fill="#0147EB" fill-rule="nonzero">
            <path d="M39.7232864,23.9748823 C41.0562441,24.0502355 42.2781221,24.5023548 43.3889202,25.3312402 C44.5737715,24.5023548 45.8326761,24.0502355 47.1656338,23.9748823 L47.1656338,23.9748823 L56.0520189,23.9748823 C57.7552427,23.9748823 59.2363068,24.5777081 60.4952114,25.7833595 C62.0503288,27.2150707 62.8649141,29.2496076 62.9389673,31.8869702 C62.9389673,34.599686 62.1614086,36.7095761 60.6062912,38.2166405 C59.2733334,39.4222919 57.7922693,40.0251177 56.1630987,40.0251177 L56.1630987,40.0251177 L47.2767136,40.0251177 C45.9437559,40.0251177 44.6848513,39.5729984 43.5,38.6687598 C42.3151487,39.5729984 41.0192175,40.0251177 39.6122065,40.0251177 L39.6122065,40.0251177 L38.865,40.025 L38.865,33.695 L39.5011267,33.6954474 C39.8960772,33.6954474 40.1740053,33.5763707 40.334911,33.3382173 L40.3897652,33.2433281 C40.4638184,33.0926217 40.500845,32.9419152 40.500845,32.7912088 L40.500845,32.7912088 L40.500845,31.6609105 C40.500845,31.2841444 40.4638184,31.0204082 40.3897652,30.8697017 C40.3897652,30.7943485 40.3527386,30.7189953 40.2786854,30.6436421 L40.2786854,30.6436421 L40.1676056,30.6436421 L40.0565258,30.5306123 C39.9824726,30.455259 39.8713928,30.4175824 39.7232864,30.4175824 C39.6492332,30.3422292 39.6122065,30.3045526 39.6122065,30.3045526 L39.6122065,30.3045526 L38.865,30.304 L38.865,23.975 Z M34.043,23.975 L34.043,30.304 L30.7258215,30.3045526 C30.4666353,30.3045526 30.2924945,30.3910911 30.2033993,30.564168 L30.1704224,30.6436421 C29.9482628,30.8697017 29.837183,31.2841444 29.837183,31.8869702 L29.837183,31.8869702 L29.837183,32.5651491 C29.837183,32.7912088 29.8742096,32.9419152 29.9482628,33.0172684 C30.0963692,33.3940345 30.3925821,33.6200942 30.8369013,33.6954474 L30.8369013,33.6954474 L34.043,33.695 L34.043,40.025 L30.7258215,40.0251177 C29.1984741,39.954474 27.8338412,39.3871173 26.6319229,38.3230474 L26.3937088,38.1036106 C24.8385914,36.6718995 24.0610327,34.6750392 24.0610327,32.1130298 L24.0610327,32.1130298 L24.0610327,31.7739403 C24.0610327,30.3422292 24.320219,29.0989011 24.8385914,28.0439561 C25.2088575,27.2150707 25.6531767,26.4992151 26.1715492,25.8963894 C26.9861345,25.1428572 27.9117996,24.5777081 28.9485445,24.200942 C29.3188105,24.1255888 29.6890766,24.0502355 30.0593426,23.9748823 L30.0593426,23.9748823 L34.043,23.975 Z M56.0520189,30.3045526 L47.3877935,30.3045526 C46.9434742,30.3799058 46.6472614,30.5682889 46.499155,30.8697017 C46.4251017,30.945055 46.3880751,31.0580848 46.3880751,31.2087912 L46.3880751,31.2087912 L46.2769953,31.4348509 L46.2769953,32.3390895 C46.3510485,32.4897959 46.3880751,32.6405024 46.3880751,32.7912088 C46.3880751,32.9419152 46.4251017,33.054945 46.499155,33.1302983 C46.6472614,33.4317111 46.9434742,33.6200942 47.3877935,33.6954474 L47.3877935,33.6954474 L56.0520189,33.6954474 C56.4963381,33.6954474 56.792551,33.5070644 56.9406574,33.1302983 C57.0887638,32.9042386 57.162817,32.5274725 57.162817,32 L57.162817,32 L57.148932,31.6326531 C57.1211621,31.2935636 57.0517372,31.0392465 56.9406574,30.8697017 C56.792551,30.5682889 56.4963381,30.3799058 56.0520189,30.3045526 L56.0520189,30.3045526 Z" id="形状结合"></path>
        </g>
    </g>
</svg>